<?xml version="1.0" standalone="no"?>
<!DOCTYPE svg PUBLIC "-//W3C//DTD SVG 1.1//EN" "http://www.w3.org/Graphics/SVG/1.1/DTD/svg11.dtd" >
<svg xmlns="http://www.w3.org/2000/svg">
<metadata></metadata>
<defs>
<font id="dehutibook" horiz-adv-x="614" >
<font-face units-per-em="2048" ascent="1444" descent="-604" />
<missing-glyph horiz-adv-x="366" />
<glyph horiz-adv-x="0" />
<glyph horiz-adv-x="682" />
<glyph unicode=" "  horiz-adv-x="366" />
<glyph unicode="&#x09;" horiz-adv-x="366" />
<glyph unicode="&#xa0;" horiz-adv-x="366" />
<glyph unicode="!" horiz-adv-x="305" d="M94 51q0 25 17.5 42.5t42.5 17.5t42 -17.5t17 -42.5t-17 -42t-42 -17t-42.5 17t-17.5 42zM98 817l99 37l12 -33l-41 -598l-31 -2z" />
<glyph unicode="&#x22;" horiz-adv-x="448" d="M92 537l21 266q3 43 49 43q17 0 30 -10.5t13 -32.5q0 -17 -4 -27l-78 -244zM258 537l21 266q3 43 51 43q16 0 28.5 -10.5t12.5 -32.5q0 -17 -4 -27l-78 -244z" />
<glyph unicode="#" horiz-adv-x="942" d="M129 262v33h121l74 201h-195v32h207l121 330l57 -22l-113 -308h244l121 330l55 -20l-112 -310h100v-32h-113l-73 -201h186v-33h-199l-104 -285l-55 23l96 262h-244l-104 -285l-58 23l97 262h-109zM315 295h244l74 201h-244z" />
<glyph unicode="$" horiz-adv-x="753" d="M115 29l28 143l33 -6v-117q86 -24 191 -24v362q-33 17 -50 26t-47 27t-46.5 31t-37.5 34t-32 40.5t-19 45.5t-8 54q0 96 69.5 154.5t174.5 58.5q78 0 176 -29l4 23l33 -6l-33 -172l-33 6v121q-62 17 -119 20v-348q118 -65 159 -99q83 -69 83 -157q0 -50 -18 -90.5 t-46 -65.5t-65 -41.5t-71 -23t-68 -6.5q-75 0 -129.5 8t-128.5 31zM213 670q0 -55 39.5 -94.5t114.5 -81.5v327q-64 -2 -109 -41.5t-45 -109.5zM399 29q67 11 109.5 56.5t42.5 113.5q0 53 -38.5 91t-113.5 81v-342z" />
<glyph unicode="%" horiz-adv-x="1347" d="M115 569q0 70 19.5 132t65.5 106.5t111 44.5q50 0 88.5 -26t60.5 -68.5t33 -90.5t11 -98q0 -51 -11 -100.5t-33 -94t-61.5 -71.5t-89.5 -27q-64 0 -109.5 46.5t-65 111t-19.5 135.5zM182 569q0 -65 11 -122t41 -100.5t75 -43.5q35 0 61 24.5t40.5 64.5t21 84.5t6.5 92.5 q0 44 -7.5 87.5t-22 82t-40 62.5t-57.5 24q-44 0 -74.5 -41.5t-42.5 -97t-12 -117.5zM502 0l317 858l31 -12l-318 -858zM844 287q0 70 19.5 131.5t65.5 106t111 44.5q50 0 88.5 -26t60.5 -68t33 -90t11 -98q0 -51 -11 -100.5t-33 -94t-61.5 -71.5t-89.5 -27 q-64 0 -109.5 46.5t-65 111t-19.5 135.5zM911 287q0 -47 6.5 -91.5t20.5 -85.5t40 -65.5t60 -24.5q46 0 76.5 43.5t41.5 100.5t11 123q0 44 -7.5 87.5t-22 82t-40 62.5t-57.5 24q-44 0 -74.5 -41.5t-42.5 -97t-12 -117.5z" />
<glyph unicode="&#x26;" horiz-adv-x="854" d="M57 231q0 88 59 148.5t167 75.5q-80 25 -128.5 74.5t-48.5 123.5q0 46 18 82t46.5 58t67.5 36t77 19.5t80 5.5q83 0 178 -25l5 23l32 -6l-32 -172l-33 6v121q-66 20 -152 20q-93 0 -141.5 -47t-48.5 -127q0 -64 41.5 -109t106 -65t145.5 -20h49v67l88 6l2 -32v-41h164 v-31h-164v-252q0 -74 27 -106.5t88 -32.5v-31h-52q-50 0 -80 18q-120 -30 -237 -30q-153 0 -238.5 63.5t-85.5 179.5zM156 231q0 -90 69 -147t187 -57q55 0 133 12v383h-78q-55 0 -95.5 -3.5t-83.5 -15t-70 -31.5t-44.5 -56t-17.5 -85z" />
<glyph unicode="'" horiz-adv-x="282" d="M92 537l21 266q3 43 49 43q17 0 30 -10.5t13 -32.5q0 -17 -4 -27l-78 -244z" />
<glyph unicode="(" horiz-adv-x="411" d="M94 371q0 321 240 579l24 -18q-88 -125 -135 -249.5t-47 -285.5q0 -77 15 -156.5t43 -155t48 -121t50 -105.5l-78 -41q-37 75 -57.5 121.5t-48.5 122t-41 152t-13 157.5z" />
<glyph unicode=")" horiz-adv-x="411" d="M57 -164q87 124 134 249t47 286q0 101 -29.5 215t-57 178t-67.5 145l78 41q48 -98 76 -163.5t54.5 -174.5t26.5 -215q0 -323 -239 -579z" />
<glyph unicode="*" horiz-adv-x="567" d="M115 612q0 19 12.5 32t32.5 13q14 0 26 -8l66 37l-115 64l17 26l114 -63v73q-12 5 -20 16.5t-8 24.5q0 19 12.5 32t32.5 13q19 0 32 -13t13 -32q0 -30 -29 -41v-73l115 63l16 -26l-115 -64l66 -37q12 8 27 8q20 0 32.5 -13t12.5 -32q0 -20 -13 -32.5t-32 -12.5 q-20 0 -32.5 12.5t-12.5 30.5l2 13l-66 36v-137h-33v137l-65 -36q2 -7 2 -13q0 -18 -12.5 -30.5t-32.5 -12.5q-19 0 -32 12.5t-13 32.5z" />
<glyph unicode="+" horiz-adv-x="690" d="M115 252v53h204v207h54v-207h205v-53h-205v-205h-54v205h-204z" />
<glyph unicode="," horiz-adv-x="290" d="M57 41l33 72q10 0 31.5 -4.5t49 -13.5t47.5 -27.5t20 -42.5q0 -69 -152 -228l-23 21q93 109 93 164q0 26 -25 36.5t-47 10.5z" />
<glyph unicode="-" horiz-adv-x="380" d="M57 262v33h271v-33h-271z" />
<glyph unicode="." horiz-adv-x="239" d="M61 51q0 25 17.5 42.5t42.5 17.5t42 -17.5t17 -42.5t-17 -42t-42 -17t-42.5 17t-17.5 42z" />
<glyph unicode="/" horiz-adv-x="589" d="M63 -160l410 1110l57 -20l-411 -1112z" />
<glyph unicode="0" horiz-adv-x="718" d="M92 274q0 118 78 194.5t203 76.5t202.5 -76t77.5 -195t-78.5 -200.5t-201.5 -81.5q-122 0 -201.5 82t-79.5 200zM184 274q0 -99 50 -174t139 -75q90 0 138 73.5t48 173.5q0 105 -47 171.5t-139 66.5q-91 0 -140 -67.5t-49 -168.5z" />
<glyph unicode="1" horiz-adv-x="468" d="M119 514l176 14l2 -32v-496l-90 -8l-2 33v460l-84 -6z" />
<glyph unicode="2" horiz-adv-x="612" d="M78 27q169 132 245 208t76 140q0 41 -32 64.5t-93 23.5q-83 0 -163 -41l-27 12l33 74q81 37 166 37t148 -39.5t63 -116.5q0 -51 -45 -104.5t-160 -139.5l-82 -61h309l27 -12l-33 -72h-412z" />
<glyph unicode="3" d="M92 436l33 72q86 37 172 37q79 0 134.5 -36t55.5 -106q0 -71 -46 -124.5t-117 -98.5q99 -7 162 -51.5t63 -132.5q0 -118 -109.5 -217t-279.5 -144l-13 31q45 19 78 35t81 47t79 62.5t53.5 77.5t22.5 96q0 41 -22 68.5t-64 40.5t-84 17.5t-98 4.5l-15 26q232 109 232 219 q0 50 -31.5 76.5t-91.5 26.5q-51 0 -85 -8t-83 -31z" />
<glyph unicode="4" horiz-adv-x="673" d="M70 18l360 502l90 8l2 -32v-412h72l27 -12l-33 -72h-66v-356l-90 -9l-2 33v332h-334zM160 84h270v379z" />
<glyph unicode="5" horiz-adv-x="583" d="M106 156v372h361l27 -14l-33 -68h-320v-204q188 0 281.5 -54.5t93.5 -181.5q0 -61 -28.5 -118t-72 -98t-96.5 -74.5t-100.5 -53t-85.5 -27.5l-10 31q45 15 93 40.5t98.5 63t83 91.5t32.5 112q0 57 -24 95.5t-68.5 56.5t-90 24.5t-106.5 6.5h-35z" />
<glyph unicode="6" horiz-adv-x="692" d="M92 274q0 95 27 180.5t79.5 158t112 130.5t140.5 121l20 -22q-93 -89 -156 -171t-94 -171q98 49 164 49q107 0 174.5 -75t67.5 -204q0 -116 -75.5 -197t-191.5 -81q-117 0 -192.5 79t-75.5 203zM182 301q0 -141 50 -209.5t128 -68.5q83 0 129 74.5t46 170.5 q0 110 -52 170t-133 60q-68 0 -143 -41q-25 -80 -25 -156z" />
<glyph unicode="7" horiz-adv-x="624" d="M80 434l33 74q84 20 166 20h268l26 -14q-88 -177 -157 -348q-47 -117 -65.5 -238t-18.5 -286l-90 -7l-2 27q0 101 50.5 265.5t102.5 285.5q48 107 111 233h-234q-87 0 -164 -24z" />
<glyph unicode="8" horiz-adv-x="665" d="M92 188q0 35 10 67.5t23 55.5t38.5 50.5t43 43.5t51.5 44q-29 20 -46.5 33.5t-42.5 38.5t-37.5 54.5t-12.5 63.5q0 96 62 155.5t175 59.5q101 0 164.5 -50.5t63.5 -135.5q0 -37 -13 -71t-38.5 -65t-46 -50t-52.5 -46q40 -28 63 -46t50 -46.5t39 -61.5t12 -73 q0 -99 -68.5 -157t-191.5 -58q-114 0 -180 52.5t-66 141.5zM182 207q0 -73 40.5 -127.5t129.5 -54.5q85 0 124.5 47t39.5 110q0 71 -52 122.5t-179 127.5q-103 -90 -103 -225zM199 678q0 -37 17 -70t52.5 -62t64 -48t75.5 -45q46 52 66 97t20 107q0 68 -39.5 117t-106.5 49 q-75 0 -112 -41t-37 -104z" />
<glyph unicode="9" horiz-adv-x="692" d="M92 268q0 115 75 196t191 81q118 0 193.5 -77.5t75.5 -201.5q0 -102 -27 -193.5t-79.5 -169t-112 -139.5t-140.5 -129l-20 25q96 102 160 193.5t96 197.5q-37 -22 -91.5 -40.5t-93.5 -18.5q-103 0 -165 83.5t-62 192.5zM182 274q0 -101 51 -163t125 -62q63 0 156 45 q21 82 21 146q0 141 -49.5 207.5t-127.5 66.5q-85 0 -130.5 -69t-45.5 -171z" />
<glyph unicode=":" horiz-adv-x="239" d="M61 51q0 25 17.5 42.5t42.5 17.5t42 -17.5t17 -42.5t-17 -42t-42 -17t-42.5 17t-17.5 42zM61 498q0 25 17.5 42t42.5 17t42 -17t17 -42t-17 -42.5t-42 -17.5t-42.5 17.5t-17.5 42.5z" />
<glyph unicode=";" horiz-adv-x="290" d="M57 41l33 72q10 0 31.5 -4.5t49 -13.5t47.5 -27.5t20 -42.5q0 -69 -152 -228l-23 21q93 109 93 164q0 26 -25 36.5t-47 10.5zM63 498q0 25 17.5 42t42.5 17t42 -17t17 -42t-17 -42.5t-42 -17.5t-42.5 17.5t-17.5 42.5z" />
<glyph unicode="&#x3c;" horiz-adv-x="690" d="M115 299l440 213l23 -47l-379 -184l379 -183l-23 -49l-416 203z" />
<glyph unicode="=" horiz-adv-x="692" d="M115 170v53h465v-53h-465zM115 334v51h465v-51h-465z" />
<glyph unicode="&#x3e;" horiz-adv-x="690" d="M115 98l381 185l-381 182l24 47l416 -203l23 -47l-439 -213z" />
<glyph unicode="?" horiz-adv-x="485" d="M88 377l133 55q72 30 99.5 73.5t27.5 106.5q0 38 -16 84l-47 123l90 35l14 -33l31 -80q22 -58 22 -106q0 -149 -176 -221l-90 -37v-146l-31 -10zM94 51q0 25 17.5 42.5t42.5 17.5t42 -17.5t17 -42.5t-17 -42t-42 -17t-42.5 17t-17.5 42z" />
<glyph unicode="@" horiz-adv-x="1247" d="M115 -106v401q0 105 38 204t104.5 176t166 124t213.5 47q229 0 371.5 -139t142.5 -351q0 -128 -80.5 -210.5t-228.5 -82.5h-49q-117 -71 -236 -71q-86 0 -124 48t-38 116q0 57 14 114t29 92t41 84l-16 29q130 74 201 74q98 0 149 -55t51 -162v-238q98 7 147.5 78 t49.5 174q0 94 -29 178t-81.5 148.5t-134 102.5t-179.5 38q-84 0 -157 -31t-122.5 -81t-84.5 -114.5t-51.5 -130t-16.5 -128.5v-420q0 -94 59 -94q20 0 51 14l13 -31q-42 -21 -64.5 -29t-52.5 -8q-45 0 -70.5 33t-25.5 101zM483 219q0 -96 26 -135t101 -39q73 0 164 47v234 q0 168 -149 168q-33 0 -84 -19q-58 -116 -58 -256z" />
<glyph unicode="A" horiz-adv-x="888" d="M70 0v31h55l272 739l-22 57l90 31l307 -827h92v-31h-252v31h58l-66 182h-375l-67 -182h102v-31h-194zM240 244h352l-178 477z" />
<glyph unicode="B" horiz-adv-x="751" d="M27 815v31h98q40 0 116 4t117 4q42 0 80 -5.5t77 -19.5t67.5 -36t46.5 -58t18 -82q0 -139 -174 -198q108 -15 165.5 -75t57.5 -149q0 -113 -82 -175t-229 -62q-38 0 -127 3t-133 3h-55v31h55v784h-98zM223 31q74 -4 121 -4q126 0 190 52t64 144q0 40 -11.5 71t-29.5 51.5 t-48.5 35.5t-59 22.5t-71.5 12t-75 5.5t-80 1v-391zM223 453q149 0 238.5 47.5t89.5 146.5q0 174 -250 174l-78 -4v-364z" />
<glyph unicode="C" horiz-adv-x="862" d="M70 428q0 188 123 309t337 121q85 0 201 -29l4 23l33 -6l-33 -172l-33 6v121q-84 22 -174 22q-172 0 -267 -111.5t-95 -285.5q0 -177 102.5 -288t282.5 -111q111 0 188 24l43 121l33 -6l-20 -139q-150 -39 -275 -39q-221 0 -335.5 123t-114.5 317z" />
<glyph unicode="D" horiz-adv-x="931" d="M27 815v31h98q42 0 117.5 4t134.5 4q222 0 354.5 -117.5t132.5 -308.5q0 -197 -119 -316.5t-333 -119.5q-91 0 -182 4t-105 4h-55v31h55v784h-98zM223 29q59 -6 133 -6q410 0 410 407q0 175 -123.5 284t-323.5 109q-47 0 -96 -6v-788z" />
<glyph unicode="E" horiz-adv-x="743" d="M27 815v31h589l2 8l33 -8l-35 -172l-30 6v135h-363v-362h266v-31h-266v-391h385l56 141l32 -6l-32 -166h-594v31h55v784h-98z" />
<glyph unicode="F" horiz-adv-x="716" d="M27 815v31h589l2 8l33 -8l-35 -172l-30 6v135h-363v-362h266v-31h-266v-391h99v-31h-252v31h55v784h-98z" />
<glyph unicode="G" horiz-adv-x="917" d="M70 428q0 188 123 309t337 121q85 0 201 -29l4 23l33 -6l-33 -172l-33 6v121q-84 22 -174 22q-172 0 -267 -111.5t-95 -285.5q0 -177 102.5 -288t282.5 -111q82 0 147 14v381h-98v31h252v-31h-57v-395q-150 -39 -275 -39q-221 0 -335.5 123t-114.5 317z" />
<glyph unicode="H" horiz-adv-x="880" d="M27 815v31h252v-31h-56v-362h439v362h-99v31h252v-31h-55v-784h98v-31h-252v31h56v391h-439v-391h99v-31h-252v31h55v784h-98z" />
<glyph unicode="I" horiz-adv-x="346" d="M27 815v31h252v-31h-56v-784h99v-31h-252v31h55v784h-98z" />
<glyph unicode="J" horiz-adv-x="346" d="M14 -215q46 30 78.5 81.5t32.5 123.5v825h-98v31h252v-31h-56v-782q0 -93 -57 -168t-135 -105z" />
<glyph unicode="K" horiz-adv-x="786" d="M27 815v31h252v-31h-56v-362h146l256 362h-101v31h195v-31h-55l-254 -362l225 -342q31 -47 59.5 -63.5t67.5 -16.5v-31h-96q-69 0 -103 49l-239 373h-101v-391h99v-31h-252v31h55v784h-98z" />
<glyph unicode="L" horiz-adv-x="743" d="M27 815v31h252v-31h-56v-784h385l56 141l32 -6l-32 -166h-594v31h55v784h-98z" />
<glyph unicode="M" horiz-adv-x="1017" d="M27 815v31h223l266 -715l268 715h168v-31h-55v-784h98v-31h-250v31h54v755l-264 -708l22 -60l-88 -34l-303 813v-766h98v-31h-194v31h55v784h-98z" />
<glyph unicode="N" horiz-adv-x="874" d="M27 815v31h190l496 -756v725h-101v31h197v-31h-55v-815h-95l-493 754v-723h98v-31h-194v31h55v784h-98z" />
<glyph unicode="O" horiz-adv-x="983" d="M70 426q0 182 120 306t310 124q188 0 303 -121.5t115 -300.5q0 -183 -116 -313.5t-302 -130.5q-191 0 -310.5 127t-119.5 309zM166 432q0 -106 37.5 -197.5t115.5 -151.5t181 -60q77 0 139.5 35t101.5 93.5t59.5 131.5t20.5 151q0 103 -35 189t-109.5 142t-176.5 56 q-104 0 -181.5 -55.5t-115 -142.5t-37.5 -191z" />
<glyph unicode="P" horiz-adv-x="702" d="M27 815v31h98q40 0 116 4t117 4q52 0 99.5 -9.5t92 -30.5t71 -62.5t26.5 -98.5q0 -52 -24.5 -93t-65 -66.5t-97 -42t-114.5 -23t-123 -6.5v-391h99v-31h-252v31h55v784h-98zM223 453q149 0 238.5 47.5t89.5 146.5q0 174 -250 174l-78 -4v-364z" />
<glyph unicode="Q" horiz-adv-x="983" d="M70 426q0 182 120 306t310 124q188 0 303 -121.5t115 -300.5q0 -135 -66 -246q-59 -97 -169.5 -165.5t-274.5 -120.5q35 -7 111 -22.5t118 -23t97 -15t93 -7.5q59 0 115 31l16 -25q-61 -43 -108 -61.5t-105 -18.5q-50 0 -247 39t-246 39q-27 0 -44 -8.5t-48 -34.5 q-35 35 -35 72q0 59 65 59q62 0 148 -12q129 44 203 80q-16 -4 -41 -4q-191 0 -310.5 127t-119.5 309zM166 432q0 -106 37.5 -197.5t115.5 -151.5t181 -60q77 0 139.5 35t101.5 93.5t59.5 131.5t20.5 151q0 103 -35 189t-109.5 142t-176.5 56q-104 0 -181.5 -55.5 t-115 -142.5t-37.5 -191z" />
<glyph unicode="R" horiz-adv-x="798" d="M27 815v31h98q40 0 116 4t117 4q52 0 99.5 -9.5t92 -30.5t71 -62.5t26.5 -98.5q0 -47 -18 -83.5t-51.5 -61t-68 -39.5t-79.5 -27l217 -331q31 -47 59.5 -63.5t67.5 -16.5v-31h-96q-71 0 -103 49l-241 373h-111v-391h99v-31h-252v31h55v784h-98zM223 453q149 0 238.5 47.5 t89.5 146.5q0 174 -250 174l-78 -4v-364z" />
<glyph unicode="S" horiz-adv-x="649" d="M70 29l28 143l31 -6v-117q83 -24 182 -24q82 0 137.5 47.5t55.5 126.5q0 39 -23.5 72.5t-61 58t-82.5 48t-90 49.5t-82.5 55t-61 71t-23.5 92q0 96 69.5 154.5t174.5 58.5q78 0 176 -29l4 23l33 -6l-33 -172l-31 6v121q-66 20 -151 20q-64 0 -109 -40.5t-45 -110.5 q0 -40 23.5 -74.5t61.5 -60.5t83.5 -51t91 -51.5t83.5 -56t61.5 -70.5t23.5 -89q0 -50 -18 -90.5t-46 -65.5t-65 -41.5t-71 -23t-68 -6.5q-75 0 -129.5 8t-128.5 31z" />
<glyph unicode="T" horiz-adv-x="774" d="M49 680l35 172l31 -6h561l2 8l31 -8l-35 -172l-31 6v135h-211v-784h98v-31h-251v31h57v784h-197l-57 -141z" />
<glyph unicode="U" horiz-adv-x="880" d="M27 815v31h249v-31h-53v-586q0 -89 53.5 -145.5t143.5 -56.5q126 0 244 36v752h-99v31h250v-31h-55v-784h98v-31h-194v29q-157 -41 -275 -41q-124 0 -194 67.5t-70 184.5v575h-98z" />
<glyph unicode="V" horiz-adv-x="888" d="M27 815v31h252v-31h-58l254 -686l254 686h-102v31h194v-31h-55l-272 -737l22 -60l-88 -34l-307 831h-94z" />
<glyph unicode="W" horiz-adv-x="1236" d="M27 815v31h252v-31h-58l254 -686l125 332l-131 354h-92v31h444v-31h-55l-96 -264l155 -422l256 686h-104v31h194v-31h-55l-272 -737l20 -60l-88 -34l-158 430l-124 -336l22 -60l-88 -34l-307 831h-94zM571 815l80 -217l80 217h-160z" />
<glyph unicode="X" horiz-adv-x="839" d="M27 815v31h252v-31h-58l221 -336l238 336h-100v31h194v-31h-55l-258 -366l274 -418h82v-31h-252v31h58l-222 336l-237 -336h100v-31h-194v31h55l258 366l-274 418h-82z" />
<glyph unicode="Y" horiz-adv-x="823" d="M27 815v31h252v-31h-58l221 -332l220 332h-101v31h195v-31h-56l-239 -366v-418h98v-31h-252v31h58v395l-256 389h-82z" />
<glyph unicode="Z" horiz-adv-x="761" d="M70 0v31l512 784h-389l-58 -141l-31 6l33 172l31 -6h526v-31l-512 -784h445l55 141l33 -6l-33 -166h-612z" />
<glyph unicode="[" horiz-adv-x="436" d="M139 -176v1122h254v-33h-166v-1054h166v-35h-254z" />
<glyph unicode="\" horiz-adv-x="589" d="M63 930l56 20l411 -1110l-57 -22z" />
<glyph unicode="]" horiz-adv-x="436" d="M45 -141h166v1054h-166v33h256v-1122h-256v35z" />
<glyph unicode="^" horiz-adv-x="690" d="M115 408l213 440l47 -25l203 -415l-48 -23l-184 379l-184 -379z" />
<glyph unicode="_" horiz-adv-x="575" d="M57 -143h463v-33h-463v33z" />
<glyph unicode="`" horiz-adv-x="247" d="M39 729l18 23q13 8 27 8q18 0 29 -8.5t30 -32.5l70 -92l-25 -19z" />
<glyph unicode="a" d="M49 117q0 89 100 133.5t263 44.5v31q0 168 -150 168q-51 0 -145 -48l-17 29q130 74 201 74q99 0 150 -55t51 -162v-301h88v-31h-176l-2 29v26q-115 -63 -217 -63q-66 0 -106 35.5t-40 89.5zM139 129q0 -33 25 -58.5t84 -25.5q73 0 164 47v170q-53 0 -98 -6t-86 -20.5 t-65 -41.5t-24 -65z" />
<glyph unicode="b" horiz-adv-x="661" d="M39 846v33h174l2 -33v-359q118 62 178 62q213 0 213 -270q0 -134 -82.5 -209.5t-224.5 -75.5q-35 0 -84 6l-88 -8l-2 31v823h-86zM215 33q55 -6 94 -6q84 0 145.5 61t61.5 182q0 224 -156 224q-57 0 -145 -45v-416z" />
<glyph unicode="c" horiz-adv-x="583" d="M49 262q0 123 79 205t198 82q82 0 186 -23l-31 -157l-32 6v123q-44 12 -115 12q-36 0 -69 -12t-62 -37t-46.5 -70.5t-17.5 -105.5q0 -109 59.5 -175.5t151.5 -66.5q80 0 160 39l14 -29q-68 -35 -110.5 -48t-102.5 -13q-112 0 -187 75.5t-75 194.5z" />
<glyph unicode="d" horiz-adv-x="653" d="M57 262q0 122 65.5 204.5t186.5 82.5q57 0 142 -29v326h-86v33h174l2 -33v-815h88v-31h-174l-4 29v28q-37 -22 -95.5 -43.5t-99.5 -21.5q-52 0 -92 24t-62.5 64t-33.5 86t-11 96zM147 258q0 -96 38.5 -153.5t109.5 -57.5q59 0 156 47v391q-43 17 -93 17q-95 0 -153 -60 t-58 -184z" />
<glyph unicode="e" d="M49 262q0 122 79.5 202.5t193.5 80.5q113 0 179 -72t66 -205l-88 -6h-340q6 -100 64.5 -159.5t146.5 -59.5q80 0 160 39l14 -29q-68 -35 -110.5 -48t-102.5 -13q-119 0 -190.5 74.5t-71.5 195.5zM139 295h336q0 215 -153 215q-70 0 -125 -52.5t-58 -162.5z" />
<glyph unicode="f" horiz-adv-x="430" d="M39 496v32h86q0 105 8 156q12 80 55 133q63 72 154 72q27 0 45 -4l27 -13l-33 -71q-68 14 -131 14q-28 0 -31 -39q-4 -37 -4 -248h164v-32h-164v-465h90v-31h-235v31h55v465h-86z" />
<glyph unicode="g" horiz-adv-x="626" d="M39 -209q0 64 43.5 111.5t103.5 66.5q-62 9 -96.5 31t-34.5 70q0 77 148 104q-119 49 -119 172q0 94 61.5 147.5t145.5 53.5q51 0 88 -6q14 -2 30.5 -5.5t27.5 -5.5t22 -2h116v-32h-79q24 -57 24 -123q0 -48 -13.5 -84.5t-32.5 -58t-51 -37t-58 -22.5t-64 -13 q-7 -1 -23 -4t-25 -4.5t-24 -4.5t-24 -5t-20.5 -6t-18.5 -7.5t-14 -8t-10 -10.5t-3 -12q0 -15 16.5 -25.5t42.5 -16t55.5 -9t56.5 -5.5q11 -1 16 -1q42 -4 74.5 -9.5t69.5 -17t61 -28t40.5 -43.5t16.5 -62q0 -59 -33 -107t-83.5 -76t-103 -43t-98.5 -15q-128 0 -179.5 45 t-51.5 108zM121 -172q0 -34 14 -66q44 -86 154 -86q85 0 153 44t68 120q0 109 -223 121h-4q-10 0 -26.5 -2.5t-41 -11.5t-45 -22.5t-35 -39t-14.5 -57.5zM172 344q0 -62 31 -104.5t100 -42.5q47 0 77.5 27.5t41 65t10.5 83.5q0 71 -29 123q-30 14 -73 14q-31 0 -56.5 -7.5 t-49.5 -24.5t-38 -51.5t-14 -82.5z" />
<glyph unicode="h" horiz-adv-x="704" d="M39 846v33h174l2 -33v-359q112 62 176 62q99 0 150 -55t51 -162v-301h88v-31h-234v31h56v295q0 168 -150 168q-55 0 -137 -45v-418h88v-31h-233v31h55v815h-86z" />
<glyph unicode="i" horiz-adv-x="327" d="M39 496v32h174l2 -32v-465h88v-31h-233v31h55v465h-86zM111 684q0 25 17 42t42 17t42 -17t17 -42t-17 -42t-42 -17t-42 17t-17 42z" />
<glyph unicode="j" horiz-adv-x="327" d="M14 -340q46 30 78.5 81.5t32.5 123.5v631h-86v32h174l2 -32v-588q0 -94 -54 -169t-130 -104zM111 684q0 25 17 42t42 17t42 -17t17 -42t-17 -42t-42 -17t-42 17t-17 42z" />
<glyph unicode="k" horiz-adv-x="661" d="M39 846v33h174l2 -33v-551h139l154 201h-86v32h184v-32h-57l-160 -211l115 -174q30 -46 61 -63t72 -17v-31h-96q-71 0 -103 49l-135 213h-88v-231h88v-31h-233v31h55v815h-86z" />
<glyph unicode="l" horiz-adv-x="327" d="M39 846v33h174l2 -33v-815h88v-31h-233v31h55v815h-86z" />
<glyph unicode="m" horiz-adv-x="1081" d="M39 496v32h174l2 -32v-9q112 62 176 62q118 0 168 -78q138 78 209 78q99 0 150 -55t51 -162v-301h88v-31h-234v31h56v295q0 168 -150 168q-55 0 -137 -45v-418h88v-31h-234v31h56v295q0 168 -150 168q-55 0 -137 -45v-418h88v-31h-233v31h55v465h-86z" />
<glyph unicode="n" horiz-adv-x="704" d="M39 496v32h174l2 -32v-9q112 62 176 62q99 0 150 -55t51 -162v-301h88v-31h-234v31h56v295q0 168 -150 168q-55 0 -137 -45v-418h88v-31h-233v31h55v465h-86z" />
<glyph unicode="o" horiz-adv-x="630" d="M49 274q0 118 73.5 194.5t192.5 76.5q121 0 195 -76t74 -195t-75.5 -200.5t-193.5 -81.5q-116 0 -191 82t-75 200zM141 274q0 -63 18 -118t58.5 -93t97.5 -38q85 0 131 73.5t46 173.5q0 104 -45 171t-132 67q-85 0 -129.5 -67t-44.5 -169z" />
<glyph unicode="p" horiz-adv-x="661" d="M39 496v32h174l2 -32v-9q118 62 178 62q213 0 213 -270q0 -134 -82.5 -209.5t-224.5 -75.5q-35 0 -84 6v-322h88v-32h-176l-2 32v818h-86zM215 33q55 -6 94 -6q84 0 145.5 61t61.5 182q0 224 -156 224q-57 0 -145 -45v-416z" />
<glyph unicode="q" horiz-adv-x="653" d="M57 262q0 122 65.5 204.5t186.5 82.5q57 0 142 -29l88 8l2 -32v-818h88v-32h-174l-4 32v379q-37 -22 -95.5 -43.5t-99.5 -21.5q-52 0 -92 24t-62.5 64t-33.5 86t-11 96zM147 258q0 -96 38.5 -153.5t109.5 -57.5q59 0 156 47v391q-43 17 -93 17q-95 0 -153 -60t-58 -184z " />
<glyph unicode="r" horiz-adv-x="522" d="M39 496v32h174l2 -32v-9q112 62 176 62q35 0 58 -10l26 -13l-33 -71q-73 20 -131 20q-49 0 -96 -26v-418h88v-31h-233v31h55v465h-86z" />
<glyph unicode="s" horiz-adv-x="522" d="M70 29l28 143l33 -6v-117q65 -24 137 -24q52 0 83.5 23.5t31.5 72.5q0 42 -30.5 70.5t-74 45.5t-87.5 34.5t-74.5 51t-30.5 83.5q0 69 48 106t124 37q92 0 184 -23l-30 -157l-33 6v123q-50 14 -117 14q-48 0 -76 -21t-28 -57q0 -34 32 -59t77 -43t90.5 -38t77.5 -56 t32 -86q0 -77 -53 -119.5t-146 -42.5q-56 0 -94.5 8.5t-103.5 30.5z" />
<glyph unicode="t" horiz-adv-x="430" d="M39 496v32h86v174l88 7l2 -33v-148h164v-32h-164v-326q0 -74 27 -106.5t88 -32.5v-31h-51q-82 0 -118 48t-36 116v332h-86z" />
<glyph unicode="u" horiz-adv-x="698" d="M39 496v32h174l2 -32v-314q0 -74 27.5 -105.5t89.5 -31.5q37 0 85.5 15.5t78.5 31.5v404h-86v32h174l2 -32v-465h88v-31h-174l-4 29v26q-115 -63 -217 -63q-82 0 -118 48t-36 116v340h-86z" />
<glyph unicode="v" horiz-adv-x="673" d="M39 496v32h176v-32l158 -433l159 433h-81v32h172v-32h-56l-178 -480l-80 -32l-188 512h-82z" />
<glyph unicode="w" horiz-adv-x="1036" d="M39 496v32h176v-32l158 -433l133 363l-25 70h-82v32h179v-32l155 -433l160 433h-82v32h174v-32h-55l-180 -480l-80 -32l-146 395l-135 -363l-80 -32l-188 512h-82z" />
<glyph unicode="x" horiz-adv-x="630" d="M39 496v32h182v-32l119 -181l135 181h-84v32h184v-32h-59l-158 -211l115 -174q30 -46 61 -63t72 -17v-31h-96q-71 0 -102 49l-105 164l-137 -182h88v-31h-184v31h55l160 213l-164 252h-82z" />
<glyph unicode="y" horiz-adv-x="673" d="M39 496v32h176v-32l158 -433l159 433h-81v32h172v-32h-56l-186 -502q-85 -225 -121.5 -292t-87.5 -67q-20 0 -55 9l-27 12l33 72q38 -9 70 -9q23 0 38 15t41.5 73.5t75.5 192.5l-39 -16l-188 512h-82z" />
<glyph unicode="z" horiz-adv-x="561" d="M70 0v31l305 465h-217l-52 -129l-30 6l30 162l31 -7h338v-32l-301 -465h252l55 141l33 -6l-33 -166h-411z" />
<glyph unicode="{" horiz-adv-x="425" d="M57 262v33q27 0 47 5t33.5 11t22.5 21.5t14 27t7 37t2.5 41.5t0.5 51v259q0 140 172 202l15 -28q-60 -30 -79.5 -66.5t-19.5 -128.5v-248q0 -39 -1.5 -60t-8.5 -52t-25 -52t-47 -36q82 -39 82 -164q0 -78 14 -123.5t62 -130.5l-80 -41q-54 98 -69 147.5t-15 126.5 q0 36 -1.5 57t-8.5 45.5t-20 36.5t-37.5 20.5t-59.5 8.5z" />
<glyph unicode="|" horiz-adv-x="288" d="M115 -174v1120h61v-1120h-61z" />
<glyph unicode="}" horiz-adv-x="425" d="M57 -152q60 30 79.5 66.5t19.5 128.5v35q0 39 1.5 60t8.5 52.5t25 52.5t47 36q-29 15 -47 36t-25 52t-8.5 52t-1.5 60v174q0 79 -13.5 122.5t-62.5 129.5l76 45q56 -101 72 -150.5t16 -123.5v-187q0 -35 0.5 -51t2.5 -41.5t7 -37t14 -27t22.5 -21.5t33.5 -11t47 -5v-33 q-27 0 -47 -5t-33.5 -11t-22.5 -21.5t-14 -27t-7 -37t-2.5 -41.5t-0.5 -51v-45q0 -76 -48.5 -126.5t-125.5 -78.5z" />
<glyph unicode="~" horiz-adv-x="604" d="M57 221q52 70 76 91.5t45 21.5q28 0 136 -20.5t135 -20.5q18 0 34.5 13.5t42.5 47.5l23 -18q-52 -70 -76 -90.5t-45 -20.5q-27 0 -133.5 20.5t-134.5 20.5q-33 0 -80 -61z" />
<glyph unicode="&#xa1;" horiz-adv-x="305" d="M94 498q0 25 17.5 42t42.5 17t42 -17t17 -42t-17 -42.5t-42 -17.5t-42.5 17.5t-17.5 42.5zM98 -274l41 596l31 2l39 -594l-98 -37z" />
<glyph unicode="&#xa2;" horiz-adv-x="702" d="M115 262q0 123 79 205t197 82q83 0 187 -23l-31 -157l-33 6v121q-52 14 -100 14v-467q81 0 161 39l15 -29q-68 -35 -110.5 -48t-102.5 -13q-119 0 -190.5 74.5t-71.5 195.5zM205 285q0 -99 49 -163.5t129 -76.5v465q-71 -5 -124.5 -59.5t-53.5 -165.5z" />
<glyph unicode="&#xa3;" horiz-adv-x="882" d="M115 0v31q60 0 86 32t26 107v252h-98v31h98v180q0 59 24.5 104t65.5 70.5t87.5 38t95.5 12.5q72 0 178 -29l4 23l33 -6l-33 -172l-33 6v121q-66 20 -149 20q-74 0 -127.5 -42t-53.5 -113v-213h211v-31h-211v-258q0 -88 -53 -133h416l55 141l33 -6l-33 -166h-622z" />
<glyph unicode="&#xa4;" horiz-adv-x="731" d="M115 51l88 88q-51 57 -51 140q0 82 51 139l-88 88l22 22l90 -88q61 54 140 54q80 0 141 -54l90 88l20 -22l-88 -88q54 -61 54 -139q0 -79 -54 -140l88 -88l-20 -22l-90 88q-60 -51 -141 -51q-83 0 -140 51l-90 -88zM242 279q0 -54 36 -90.5t89 -36.5q54 0 90.5 36.5 t36.5 90.5q0 52 -37 89.5t-90 37.5q-52 0 -88.5 -37.5t-36.5 -89.5z" />
<glyph unicode="&#xa5;" horiz-adv-x="956" d="M115 815v31h252v-31h-58l221 -332l220 332h-99v31h193v-31h-53l-240 -362h209v-31h-211v-178h211v-31h-211v-182h98v-31h-252v31h58v182h-101v31h101v178h-101v31h82l-237 362h-82z" />
<glyph unicode="&#xa6;" horiz-adv-x="288" d="M115 -174v397h61v-397h-61zM115 334v612h61v-612h-61z" />
<glyph unicode="&#xa7;" horiz-adv-x="585" d="M115 428q0 44 35 72t94 28h6q-14 46 -14 76q0 43 35 70.5t94 27.5h20q10 31 43 31q19 0 32 -12.5t13 -32.5t-13 -32.5t-32 -12.5q-33 0 -43 29q-41 0 -66.5 -18.5t-25.5 -47.5q0 -24 20 -80l115 -311q29 -79 29 -117q0 -43 -35 -70.5t-94 -27.5h-6q14 -46 14 -76 q0 -43 -35 -70.5t-94 -27.5h-19v31q40 0 65.5 18t25.5 47q0 20 -21 78l-115 311q-28 77 -28 117zM172 430q0 -22 21 -80l116 -319q40 0 65 18t25 47q0 22 -20 78l-117 322q-41 0 -65.5 -18.5t-24.5 -47.5z" />
<glyph unicode="&#xa8;" horiz-adv-x="444" d="M61 684q0 25 17.5 42t42.5 17t42 -17t17 -42t-17 -42t-42 -17t-42.5 17t-17.5 42zM266 684q0 25 17.5 42t42.5 17t42 -17t17 -42t-17 -42t-42 -17t-42.5 17t-17.5 42z" />
<glyph unicode="&#xa9;" horiz-adv-x="1093" d="M115 422q0 178 127.5 306t306.5 128q180 0 306 -127t126 -307q0 -178 -126.5 -304t-305.5 -126q-116 0 -216 57.5t-159 156.5t-59 216zM166 422q0 -160 112 -273.5t271 -113.5t271 113.5t112 273.5t-112 274.5t-271 114.5t-271 -114.5t-112 -274.5zM297 428 q0 109 72 181.5t194 72.5q81 0 170 -39l-24 -119l-31 6v97q-60 22 -117 22q-89 0 -136.5 -59.5t-47.5 -159.5q0 -96 51.5 -156.5t142.5 -60.5q51 0 89.5 17.5t80.5 52.5l21 -25q-96 -92 -205 -92q-122 0 -191 74.5t-69 187.5z" />
<glyph unicode="&#xaa;" horiz-adv-x="421" d="M33 422v31h375v-31h-375zM33 569q0 60 68.5 89.5t179.5 29.5v19q0 108 -99 108q-32 0 -92 -29l-10 21q84 49 131 49q137 0 137 -141v-201h60v-22h-125l-2 20v20q-87 -47 -152 -47q-45 0 -70.5 23t-25.5 61zM100 580q0 -13 4 -24t21 -21.5t45 -10.5q52 0 111 31v109 q-181 0 -181 -84z" />
<glyph unicode="&#xab;" horiz-adv-x="634" d="M57 358l156 193l25 -19l-82 -147l94 -172l-60 -72l-24 19zM258 358l156 193l24 -19l-82 -147l95 -172l-60 -72l-24 19z" />
<glyph unicode="&#xac;" horiz-adv-x="692" d="M115 334v51h465v-217h-52v166h-413z" />
<glyph unicode="&#xad;" horiz-adv-x="380" d="M57 262v33h271v-33h-271z" />
<glyph unicode="&#xae;" horiz-adv-x="524" d="M57 633q0 88 60.5 149.5t146.5 61.5q87 0 147 -61t60 -150q0 -87 -61 -149t-146 -62t-146 62t-61 149zM96 633q0 -71 49 -123.5t119 -52.5q73 0 123 57h-33q-23 0 -37 25l-47 79h-34v-81h32v-23h-94v23h16v192h-30v25h30q14 0 42 2t47 2q92 0 92 -68q0 -47 -54 -63 l41 -68q9 -13 18.5 -17.5t29.5 -4.5q26 47 26 96q0 71 -49 122.5t-119 51.5t-119 -51.5t-49 -122.5zM236 643q88 0 88 47q0 43 -56 43l-32 -2v-88z" />
<glyph unicode="&#xaf;" horiz-adv-x="385" d="M61 672v30h265v-30h-265z" />
<glyph unicode="&#xb0;" horiz-adv-x="337" d="M57 686q0 47 34 80t81 33q46 0 78.5 -33.5t32.5 -79.5t-32.5 -79.5t-78.5 -33.5q-47 0 -81 33t-34 80zM98 688q0 -31 21.5 -53.5t52.5 -22.5q29 0 49.5 22t20.5 52t-20.5 52t-49.5 22q-31 0 -52.5 -20.5t-21.5 -51.5z" />
<glyph unicode="&#xb1;" horiz-adv-x="690" d="M115 -18h463v-54h-463v54zM115 252v53h204v205h54v-205h205v-53h-205v-205h-54v205h-204z" />
<glyph unicode="&#xb2;" horiz-adv-x="419" d="M53 508q58 79 88 122t69.5 105.5t57 107.5t17.5 79q0 35 -25.5 57t-71.5 22q-58 0 -108 -26l-19 8l23 51q59 29 113 29q59 0 107 -29.5t48 -87.5q0 -50 -23 -95.5t-100 -148.5l-106 -143h235l19 -10l-21 -55h-286z" />
<glyph unicode="&#xb3;" horiz-adv-x="430" d="M61 983l23 51q65 29 123 29q68 0 100.5 -28.5t32.5 -67.5q0 -26 -10 -49t-30.5 -42.5t-36.5 -31t-42 -27.5q71 -3 118.5 -33.5t47.5 -89.5q0 -70 -78 -129t-200 -88l-9 23q32 12 54.5 21t56.5 27t55 36t37 44.5t16 55.5q0 27 -15.5 44.5t-44.5 25.5t-58.5 11t-69.5 3 l-10 23q162 70 162 141q0 67 -86 67q-52 0 -117 -26z" />
<glyph unicode="&#xb4;" horiz-adv-x="247" d="M39 627l67 92q19 24 30.5 32.5t29.5 8.5q6 0 13 -2t11 -4l3 -2l20 -23l-152 -121z" />
<glyph unicode="&#xb5;" horiz-adv-x="724" d="M39 496v32h174l2 -32v-314q0 -74 27.5 -105.5t89.5 -31.5q37 0 85.5 15.5t78.5 31.5v404h-86v32h174l2 -32v-326q0 -75 27 -107t87 -32v-31h-51q-91 0 -131 68q-125 -76 -239 -76q-34 0 -64 10v-324h88v-32h-176l-2 32v818h-86z" />
<glyph unicode="&#xb6;" horiz-adv-x="817" d="M115 483q0 93 74 156t163 63h264q10 31 43 31q19 0 32.5 -12.5t13.5 -32.5t-13.5 -32.5t-32.5 -12.5q-33 0 -43 29h-61v-561q0 -52 -38 -81.5t-101 -29.5h-35v-174h-62v436q-92 14 -148 72t-56 149zM381 31q113 0 113 90v551q-57 0 -85 -22t-28 -72v-547z" />
<glyph unicode="&#xb7;" horiz-adv-x="239" d="M61 279q0 25 17.5 42t42.5 17t42 -17t17 -42t-17 -42.5t-42 -17.5t-42.5 17.5t-17.5 42.5z" />
<glyph unicode="&#xb8;" horiz-adv-x="346" d="M61 -143h91q135 0 135 -70q0 -74 -154 -152l-16 25q46 36 63 60.5t17 52.5q0 27 -18.5 39t-61.5 12h-56v33z" />
<glyph unicode="&#xb9;" horiz-adv-x="335" d="M80 1044l129 13l2 -23v-540l-68 -7l-2 23v516l-59 -6z" />
<glyph unicode="&#xba;" horiz-adv-x="434" d="M33 422v31h373v-31h-373zM33 676q0 79 52 130.5t134 51.5q84 0 135.5 -51t51.5 -131q0 -79 -52.5 -134t-134.5 -55t-134 54.5t-52 134.5zM100 676q0 -65 32 -114.5t87 -49.5q56 0 86.5 48t30.5 114q0 69 -30 113t-87 44q-56 0 -87.5 -44.5t-31.5 -110.5z" />
<glyph unicode="&#xbb;" horiz-adv-x="636" d="M186 477l60 74l24 -19l111 -200l-158 -191l-24 19l84 145zM387 477l59 74l27 -19l109 -200l-156 -191l-27 19l84 145z" />
<glyph unicode="&#xbc;" horiz-adv-x="1011" d="M80 834l129 12l2 -23v-540l-68 -7l-2 23v516l-59 -6zM289 0l317 858l31 -12l-315 -858zM594 213l244 340l63 6l2 -20v-275h47l19 -10l-21 -55h-45v-199l-65 -6l-2 22v183h-222zM664 264h172v242z" />
<glyph unicode="&#xbd;" horiz-adv-x="991" d="M80 834l129 12l2 -23v-540l-68 -7l-2 23v516l-59 -6zM289 0l317 858l31 -12l-315 -858zM625 14q76 103 116 161.5t77.5 133t37.5 119.5q0 35 -25 57.5t-71 22.5q-57 0 -109 -27l-18 8l22 52q57 28 113 28q60 0 108 -29t48 -87q0 -50 -23 -95.5t-100 -148.5l-107 -143h236 l18 -11l-20 -55h-287z" />
<glyph unicode="&#xbe;" horiz-adv-x="1107" d="M61 774l23 51q65 29 123 29q68 0 100.5 -28.5t32.5 -67.5q0 -26 -10 -49t-30.5 -42.5t-36.5 -31t-42 -27.5q71 -3 118.5 -33.5t47.5 -89.5q0 -70 -78 -129t-200 -88l-9 23q32 12 54.5 21t56.5 27t55 36t37 44.5t16 55.5q0 27 -15.5 44.5t-44.5 25.5t-58.5 11t-69.5 3 l-10 23q162 70 162 141q0 68 -86 68q-34 0 -56 -5.5t-61 -21.5zM383 0l317 858l31 -12l-315 -858zM690 213l244 340l63 6l2 -20v-275h48l18 -10l-21 -55h-45v-199l-65 -6l-2 22v183h-221zM760 264h172v242z" />
<glyph unicode="&#xbf;" horiz-adv-x="485" d="M45 -90q0 149 176 221l90 37v145l31 11l57 -156l-133 -55q-72 -30 -99.5 -73.5t-27.5 -107.5q0 -35 17 -84l47 -122l-90 -35l-15 33l-30 79q-23 61 -23 107zM274 498q0 25 17.5 42t42.5 17t42 -17t17 -42t-17 -42.5t-42 -17.5t-42.5 17.5t-17.5 42.5z" />
<glyph unicode="&#xc0;" horiz-adv-x="888" d="M70 0v31h55l272 739l-22 57l90 31l307 -827h92v-31h-252v31h58l-66 182h-375l-67 -182h102v-31h-194zM240 244h352l-178 477zM328 1049l18 22q13 8 27 8q18 0 29.5 -8t29.5 -31l70 -94l-23 -18z" />
<glyph unicode="&#xc1;" horiz-adv-x="888" d="M70 0v31h55l272 739l-22 57l90 31l307 -827h92v-31h-252v31h58l-66 182h-375l-67 -182h102v-31h-194zM240 244h352l-178 477zM379 946l70 94q18 23 29.5 31t29.5 8q6 0 13 -2t11 -4l3 -2l18 -22l-152 -121z" />
<glyph unicode="&#xc2;" horiz-adv-x="888" d="M70 0v31h55l272 739l-22 57l90 31l307 -827h92v-31h-252v31h58l-66 182h-375l-67 -182h102v-31h-194zM240 244h352l-178 477zM311 946l70 94q18 23 29.5 31t29.5 8t30 -8t30 -31l69 -94l-24 -18l-105 84l-104 -84z" />
<glyph unicode="&#xc3;" horiz-adv-x="888" d="M70 0v31h55l272 739l-22 57l90 31l307 -827h92v-31h-252v31h58l-66 182h-375l-67 -182h102v-31h-194zM240 244h352l-178 477zM262 944q52 70 76 91.5t45 21.5q13 0 66 -20.5t67 -20.5q18 0 35 14t43 47l22 -16q-52 -71 -76 -92t-44 -21q-13 0 -65 20.5t-66 20.5 q-32 0 -80 -63z" />
<glyph unicode="&#xc4;" horiz-adv-x="888" d="M70 0v31h55l272 739l-22 57l90 31l307 -827h92v-31h-252v31h58l-66 182h-375l-67 -182h102v-31h-194zM240 244h352l-178 477zM279 1004q0 25 17 42t42 17t42 -17t17 -42t-17 -42.5t-42 -17.5t-42 17.5t-17 42.5zM483 1004q0 25 17.5 42t42.5 17t42 -17t17 -42t-17 -42.5 t-42 -17.5t-42.5 17.5t-17.5 42.5z" />
<glyph unicode="&#xc5;" horiz-adv-x="888" d="M70 0v31h55l272 739l-22 57l90 31l307 -827h92v-31h-252v31h58l-66 182h-375l-67 -182h102v-31h-194zM240 244h352l-178 477zM348 1004q0 38 27 64t65 26q37 0 63.5 -26.5t26.5 -63.5t-26.5 -63t-63.5 -26q-38 0 -65 26t-27 63zM387 1004q0 -22 15.5 -38t37.5 -16t38 16 t16 38t-16 37.5t-38 15.5t-37.5 -15.5t-15.5 -37.5z" />
<glyph unicode="&#xc6;" horiz-adv-x="1163" d="M70 0v31h55l289 784h-99v31h723l2 8l31 -8l-35 -172l-30 6v135h-363v-362h266v-31h-266v-391h385l55 141l33 -6l-33 -166h-594v31h56v784h-96l-289 -784h104v-31h-194z" />
<glyph unicode="&#xc7;" horiz-adv-x="860" d="M70 428q0 188 123 309t337 121q85 0 201 -29l4 23l33 -6l-33 -172l-33 6v121q-84 22 -174 22q-172 0 -267 -111.5t-95 -285.5q0 -177 102.5 -288t282.5 -111q111 0 188 24l43 121l33 -6l-20 -139q-150 -39 -275 -39q-221 0 -335.5 123t-114.5 317zM399 -143h90 q136 0 136 -70q0 -74 -154 -152l-16 25q46 36 63 60.5t17 52.5q0 27 -18.5 39t-61.5 12h-56v33z" />
<glyph unicode="&#xc8;" horiz-adv-x="743" d="M27 815v31h589l2 6l33 -6l-35 -172l-30 6v135h-363v-362h266v-31h-266v-391h385l56 141l32 -6l-32 -166h-594v31h55v784h-98zM250 1049l18 22q13 8 27 8q18 0 29.5 -8t29.5 -31l70 -94l-23 -18z" />
<glyph unicode="&#xc9;" horiz-adv-x="743" d="M27 815v31h589l2 6l33 -6l-35 -172l-30 6v135h-363v-362h266v-31h-266v-391h385l56 141l32 -6l-32 -166h-594v31h55v784h-98zM301 946l70 94q19 24 29 31.5t28 7.5q6 0 13 -2t11 -4l3 -2l20 -22l-151 -121z" />
<glyph unicode="&#xca;" horiz-adv-x="743" d="M27 815v31h589l2 6l33 -6l-35 -172l-30 6v135h-363v-362h266v-31h-266v-391h385l56 141l32 -6l-32 -166h-594v31h55v784h-98zM236 946l69 94q18 23 30 31t30 8t28 -7.5t29 -31.5l70 -94l-23 -18l-104 84l-107 -84z" />
<glyph unicode="&#xcb;" horiz-adv-x="743" d="M27 815v31h589l2 6l33 -6l-35 -172l-30 6v135h-363v-362h266v-31h-266v-391h385l56 141l32 -6l-32 -166h-594v31h55v784h-98zM199 1004q0 25 17 42t42 17t42 -17t17 -42t-17 -42.5t-42 -17.5t-42 17.5t-17 42.5zM403 1004q0 25 17.5 42t42.5 17t42 -17t17 -42t-17 -42.5 t-42 -17.5t-42.5 17.5t-17.5 42.5z" />
<glyph unicode="&#xcc;" horiz-adv-x="346" d="M27 815v31h252v-31h-56v-784h99v-31h-252v31h55v784h-98zM61 1049l19 22q12 8 26 8q18 0 30 -8t30 -31l70 -94l-23 -18z" />
<glyph unicode="&#xcd;" horiz-adv-x="346" d="M27 815v31h252v-31h-56v-784h99v-31h-252v31h55v784h-98zM113 946l69 94q18 23 30 31t30 8q6 0 12.5 -2t9.5 -4l4 -2l19 -22l-152 -121z" />
<glyph unicode="&#xce;" horiz-adv-x="346" d="M27 815v31h252v-31h-56v-784h99v-31h-252v31h55v784h-98zM45 946l70 94q18 23 29.5 31t29.5 8t29.5 -8t29.5 -31l70 -94l-24 -18l-105 84l-104 -84z" />
<glyph unicode="&#xcf;" horiz-adv-x="346" d="M12 1004q0 25 17.5 42t42.5 17t42 -17t17 -42t-17 -42.5t-42 -17.5t-42.5 17.5t-17.5 42.5zM27 815v31h252v-31h-56v-784h99v-31h-252v31h55v784h-98zM217 1004q0 25 17 42t42 17t42.5 -17t17.5 -42t-17.5 -42.5t-42.5 -17.5t-42 17.5t-17 42.5z" />
<glyph unicode="&#xd0;" horiz-adv-x="974" d="M70 422v31h98v362h-98v31h98q42 0 117.5 4t134.5 4q222 0 354.5 -117.5t132.5 -308.5q0 -197 -119 -316.5t-333 -119.5q-91 0 -182 4t-105 4h-55v31h55v391h-98zM266 29q59 -6 133 -6q410 0 410 407q0 175 -123.5 284t-323.5 109q-46 0 -96 -6v-364h209v-31h-209v-393z " />
<glyph unicode="&#xd1;" horiz-adv-x="874" d="M27 815v31h190l496 -756v725h-101v31h197v-31h-55v-815h-95l-493 754v-723h98v-31h-194v31h55v784h-98zM262 944q52 70 76 91.5t45 21.5q13 0 66 -20.5t67 -20.5q18 0 35 14t43 47l22 -16q-52 -71 -76 -92t-44 -21q-13 0 -65 20.5t-66 20.5q-32 0 -80 -63z" />
<glyph unicode="&#xd2;" horiz-adv-x="983" d="M70 426q0 182 120 306t310 124q188 0 303 -121.5t115 -300.5q0 -183 -116 -313.5t-302 -130.5q-191 0 -310.5 127t-119.5 309zM166 432q0 -106 37.5 -197.5t115.5 -151.5t181 -60q77 0 139.5 35t101.5 93.5t59.5 131.5t20.5 151q0 103 -35 189t-109.5 142t-176.5 56 q-104 0 -181.5 -55.5t-115 -142.5t-37.5 -191zM381 1049l20 22q13 8 27 8q18 0 29.5 -8t29.5 -31l68 -94l-23 -18z" />
<glyph unicode="&#xd3;" horiz-adv-x="983" d="M70 426q0 182 120 306t310 124q188 0 303 -121.5t115 -300.5q0 -183 -116 -313.5t-302 -130.5q-191 0 -310.5 127t-119.5 309zM166 432q0 -106 37.5 -197.5t115.5 -151.5t181 -60q77 0 139.5 35t101.5 93.5t59.5 131.5t20.5 151q0 103 -35 189t-109.5 142t-176.5 56 q-104 0 -181.5 -55.5t-115 -142.5t-37.5 -191zM432 946l70 94q18 23 29.5 31t29.5 8q6 0 13 -2t10 -4l4 -2l18 -22l-151 -121z" />
<glyph unicode="&#xd4;" horiz-adv-x="983" d="M70 426q0 182 120 306t310 124q188 0 303 -121.5t115 -300.5q0 -183 -116 -313.5t-302 -130.5q-191 0 -310.5 127t-119.5 309zM166 432q0 -106 37.5 -197.5t115.5 -151.5t181 -60q77 0 139.5 35t101.5 93.5t59.5 131.5t20.5 151q0 103 -35 189t-109.5 142t-176.5 56 q-104 0 -181.5 -55.5t-115 -142.5t-37.5 -191zM367 946l67 94q18 23 30 31t30 8t29.5 -8t29.5 -31l70 -94l-25 -18l-104 84l-105 -84z" />
<glyph unicode="&#xd5;" horiz-adv-x="983" d="M70 426q0 182 120 306t310 124q188 0 303 -121.5t115 -300.5q0 -183 -116 -313.5t-302 -130.5q-191 0 -310.5 127t-119.5 309zM166 432q0 -106 37.5 -197.5t115.5 -151.5t181 -60q77 0 139.5 35t101.5 93.5t59.5 131.5t20.5 151q0 103 -35 189t-109.5 142t-176.5 56 q-104 0 -181.5 -55.5t-115 -142.5t-37.5 -191zM317 944q52 70 76 91.5t45 21.5q14 0 67 -20.5t66 -20.5q18 0 35 14t43 47l23 -16q-52 -70 -76 -91.5t-45 -21.5q-13 0 -66 20.5t-67 20.5q-18 0 -35 -14.5t-43 -48.5z" />
<glyph unicode="&#xd6;" horiz-adv-x="983" d="M70 426q0 182 120 306t310 124q188 0 303 -121.5t115 -300.5q0 -183 -116 -313.5t-302 -130.5q-191 0 -310.5 127t-119.5 309zM166 432q0 -106 37.5 -197.5t115.5 -151.5t181 -60q77 0 139.5 35t101.5 93.5t59.5 131.5t20.5 151q0 103 -35 189t-109.5 142t-176.5 56 q-104 0 -181.5 -55.5t-115 -142.5t-37.5 -191zM332 1004q0 25 17 42t42 17t42.5 -17t17.5 -42t-17.5 -42.5t-42.5 -17.5t-42 17.5t-17 42.5zM537 1004q0 25 17 42t42 17t42 -17t17 -42t-17 -42.5t-42 -17.5t-42 17.5t-17 42.5z" />
<glyph unicode="&#xd7;" horiz-adv-x="690" d="M115 88l194 193l-194 194l37 37l194 -195l195 195l37 -37l-193 -194l193 -193l-37 -39l-195 195l-194 -195z" />
<glyph unicode="&#xd8;" horiz-adv-x="983" d="M70 426q0 182 120 306t310 124q188 0 303 -121.5t115 -300.5q0 -183 -116 -313.5t-302 -130.5q-191 0 -310.5 127t-119.5 309zM166 432q0 -116 46.5 -215.5t131.5 -150.5l272 735q-53 20 -116 20q-104 0 -181.5 -55.5t-115 -142.5t-37.5 -191zM373 49q56 -26 127 -26 q77 0 139.5 35t101.5 93.5t59.5 131.5t20.5 151q0 116 -45 211.5t-131 140.5z" />
<glyph unicode="&#xd9;" horiz-adv-x="880" d="M27 815v31h249v-31h-53v-586q0 -89 53.5 -145.5t143.5 -56.5q126 0 244 36v752h-99v31h250v-31h-55v-784h98v-31h-194v29q-157 -41 -275 -41q-124 0 -194 67.5t-70 184.5v575h-98zM330 1049l20 22q13 8 27 8q18 0 28 -7.5t29 -31.5l70 -94l-23 -18z" />
<glyph unicode="&#xda;" horiz-adv-x="880" d="M27 815v31h249v-31h-53v-586q0 -89 53.5 -145.5t143.5 -56.5q126 0 244 36v752h-99v31h250v-31h-55v-784h98v-31h-194v29q-157 -41 -275 -41q-124 0 -194 67.5t-70 184.5v575h-98zM381 946l70 94q18 23 29.5 31t29.5 8q6 0 13 -2t11 -4l3 -2l18 -22l-149 -121z" />
<glyph unicode="&#xdb;" horiz-adv-x="880" d="M27 815v31h249v-31h-53v-586q0 -89 53.5 -145.5t143.5 -56.5q126 0 244 36v752h-99v31h250v-31h-55v-784h98v-31h-194v29q-157 -41 -275 -41q-124 0 -194 67.5t-70 184.5v575h-98zM315 946l70 94q19 24 29 31.5t28 7.5t30 -8t30 -31l69 -94l-22 -18l-107 84l-104 -84z " />
<glyph unicode="&#xdc;" horiz-adv-x="880" d="M27 815v31h249v-31h-53v-586q0 -89 53.5 -145.5t143.5 -56.5q126 0 244 36v752h-99v31h250v-31h-55v-784h98v-31h-194v29q-157 -41 -275 -41q-124 0 -194 67.5t-70 184.5v575h-98zM281 1004q0 25 17 42t42 17t42 -17t17 -42t-17 -42.5t-42 -17.5t-42 17.5t-17 42.5z M485 1004q0 25 17.5 42t42.5 17t42 -17t17 -42t-17 -42.5t-42 -17.5t-42.5 17.5t-17.5 42.5z" />
<glyph unicode="&#xdd;" horiz-adv-x="823" d="M27 815v31h252v-31h-58l221 -332l220 332h-101v31h195v-31h-56l-239 -366v-418h98v-31h-252v31h58v395l-256 389h-82zM350 946l70 94q18 23 29.5 31t29.5 8q6 0 13 -2t10 -4l4 -2l18 -22l-151 -121z" />
<glyph unicode="&#xde;" horiz-adv-x="702" d="M27 815v31h252v-31h-56v-149q66 4 135 4q52 0 99.5 -10t92 -32.5t71 -66t26.5 -104.5q0 -68 -36.5 -117.5t-99.5 -76t-134 -38.5t-154 -12v-182h99v-31h-252v31h55v784h-98zM223 244q149 0 238.5 51t89.5 156q0 186 -250 186l-78 -4v-389z" />
<glyph unicode="&#xdf;" horiz-adv-x="851" d="M70 0v31h55v577q0 130 79 205.5t202 75.5q97 0 157 -49.5t60 -132.5q0 -75 -31 -166.5t-31 -128.5q0 -31 24.5 -55t59 -41t69 -36t59 -51.5t24.5 -76.5q0 -77 -53 -119.5t-146 -42.5q-56 0 -95 8.5t-104 30.5l29 143l33 -6v-117q65 -24 137 -24q52 0 83.5 23.5t31.5 72.5 q0 36 -22 61.5t-53.5 40.5t-63.5 29t-54 37t-22 55q0 44 42 159t42 191q0 65 -42 109.5t-139 44.5q-87 0 -137.5 -58.5t-50.5 -166.5v-592h90v-31h-233z" />
<glyph unicode="&#xe0;" d="M49 117q0 89 100 133.5t263 44.5v31q0 168 -150 168q-51 0 -145 -48l-17 29q130 74 201 74q99 0 150 -55t51 -162v-301h88v-31h-176l-2 29v26q-115 -63 -217 -63q-66 0 -106 35.5t-40 89.5zM139 129q0 -33 25 -58.5t84 -25.5q73 0 164 47v170q-53 0 -98 -6t-86 -20.5 t-65 -41.5t-24 -65zM180 729l21 23q12 8 26 8q17 0 28 -8t30 -33l69 -92l-22 -19z" />
<glyph unicode="&#xe1;" d="M49 117q0 89 100 133.5t263 44.5v31q0 168 -150 168q-51 0 -145 -48l-17 29q130 74 201 74q99 0 150 -55t51 -162v-301h88v-31h-176l-2 29v26q-115 -63 -217 -63q-66 0 -106 35.5t-40 89.5zM139 129q0 -33 25 -58.5t84 -25.5q73 0 164 47v170q-53 0 -98 -6t-86 -20.5 t-65 -41.5t-24 -65zM233 627l70 92q14 18 20 24.5t15.5 11.5t21.5 5q6 0 13 -2t11 -4l3 -2l21 -23l-152 -121z" />
<glyph unicode="&#xe2;" d="M49 117q0 89 100 133.5t263 44.5v31q0 168 -150 168q-51 0 -145 -48l-17 29q130 74 201 74q99 0 150 -55t51 -162v-301h88v-31h-176l-2 29v26q-115 -63 -217 -63q-66 0 -106 35.5t-40 89.5zM139 129q0 -33 25 -58.5t84 -25.5q73 0 164 47v170q-53 0 -98 -6t-86 -20.5 t-65 -41.5t-24 -65zM166 627l70 92q19 24 30 32.5t29 8.5q12 0 21.5 -5t15.5 -11.5t20 -24.5l70 -92l-23 -19l-104 84l-107 -84z" />
<glyph unicode="&#xe3;" d="M49 117q0 89 100 133.5t263 44.5v31q0 168 -150 168q-51 0 -145 -48l-17 29q130 74 201 74q99 0 150 -55t51 -162v-301h88v-31h-176l-2 29v26q-115 -63 -217 -63q-66 0 -106 35.5t-40 89.5zM121 627q51 69 75.5 89.5t45.5 20.5q14 0 67 -20.5t66 -20.5q18 0 34.5 14.5 t43.5 49.5l22 -19q-52 -70 -75 -90t-44 -20q-13 0 -66.5 20.5t-66.5 20.5q-18 0 -34.5 -14.5t-43.5 -49.5zM139 129q0 -33 25 -58.5t84 -25.5q73 0 164 47v170q-53 0 -98 -6t-86 -20.5t-65 -41.5t-24 -65z" />
<glyph unicode="&#xe4;" d="M49 117q0 89 100 133.5t263 44.5v31q0 168 -150 168q-51 0 -145 -48l-17 29q130 74 201 74q99 0 150 -55t51 -162v-301h88v-31h-176l-2 29v26q-115 -63 -217 -63q-66 0 -106 35.5t-40 89.5zM133 684q0 25 17.5 42t42.5 17t42 -17t17 -42t-17 -42t-42 -17t-42.5 17 t-17.5 42zM139 129q0 -33 25 -58.5t84 -25.5q73 0 164 47v170q-53 0 -98 -6t-86 -20.5t-65 -41.5t-24 -65zM338 684q0 25 17 42t42 17t42.5 -17t17.5 -42t-17.5 -42t-42.5 -17t-42 17t-17 42z" />
<glyph unicode="&#xe5;" d="M49 117q0 89 100 133.5t263 44.5v31q0 168 -150 168q-51 0 -145 -48l-17 29q130 74 201 74q99 0 150 -55t51 -162v-301h88v-31h-176l-2 29v26q-115 -63 -217 -63q-66 0 -106 35.5t-40 89.5zM139 129q0 -33 25 -58.5t84 -25.5q73 0 164 47v170q-53 0 -98 -6t-86 -20.5 t-65 -41.5t-24 -65zM203 684q0 38 27 64t65 26q37 0 63.5 -26.5t26.5 -63.5t-26.5 -63.5t-63.5 -26.5q-38 0 -65 26.5t-27 63.5zM242 684q0 -22 15.5 -37.5t37.5 -15.5t36.5 15.5t14.5 37.5t-14.5 37.5t-36.5 15.5t-37.5 -15.5t-15.5 -37.5z" />
<glyph unicode="&#xe6;" horiz-adv-x="976" d="M49 117q0 89 100 133.5t263 44.5v31q0 168 -150 168q-51 0 -145 -48l-17 29q130 74 201 74q132 0 178 -98q78 94 205 94q113 0 179.5 -72.5t66.5 -204.5l-88 -6h-340q6 -100 64.5 -159.5t146.5 -59.5q79 0 159 39l15 -29q-68 -35 -110.5 -48t-102.5 -13q-135 0 -207 94 q-144 -94 -272 -94q-66 0 -106 35.5t-40 89.5zM139 129q0 -33 25 -58.5t84 -25.5q73 0 164 47v170q-53 0 -98 -6t-86 -20.5t-65 -41.5t-24 -65zM502 295h336q0 215 -154 215q-70 0 -124.5 -52.5t-57.5 -162.5z" />
<glyph unicode="&#xe7;" horiz-adv-x="583" d="M49 262q0 123 79 205t198 82q82 0 186 -23l-31 -157l-32 6v123q-44 12 -115 12q-36 0 -69 -12t-62 -37t-46.5 -70.5t-17.5 -105.5q0 -109 59.5 -175.5t151.5 -66.5q80 0 160 39l14 -29q-68 -35 -110.5 -48t-102.5 -13q-112 0 -187 75.5t-75 194.5zM205 -143h90 q135 0 135 -70q0 -74 -154 -152l-16 25q46 36 63 60.5t17 52.5q0 27 -18.5 39t-61.5 12h-55v33z" />
<glyph unicode="&#xe8;" d="M49 262q0 122 79.5 202.5t193.5 80.5q113 0 179 -72t66 -205l-88 -6h-340q6 -100 64.5 -159.5t146.5 -59.5q80 0 160 39l14 -29q-68 -35 -110.5 -48t-102.5 -13q-119 0 -190.5 74.5t-71.5 195.5zM139 295h336q0 215 -153 215q-70 0 -125 -52.5t-58 -162.5zM209 729l18 23 q13 8 27 8q18 0 29 -8.5t30 -32.5l70 -92l-23 -19z" />
<glyph unicode="&#xe9;" d="M49 262q0 122 79.5 202.5t193.5 80.5q113 0 179 -72t66 -205l-88 -6h-340q6 -100 64.5 -159.5t146.5 -59.5q80 0 160 39l14 -29q-68 -35 -110.5 -48t-102.5 -13q-119 0 -190.5 74.5t-71.5 195.5zM139 295h336q0 215 -153 215q-70 0 -125 -52.5t-58 -162.5zM260 627l70 92 q14 18 20 24.5t15.5 11.5t21.5 5q6 0 13 -2t10 -4l4 -2l20 -23l-151 -121z" />
<glyph unicode="&#xea;" d="M49 262q0 122 79.5 202.5t193.5 80.5q113 0 179 -72t66 -205l-88 -6h-340q6 -100 64.5 -159.5t146.5 -59.5q80 0 160 39l14 -29q-68 -35 -110.5 -48t-102.5 -13q-119 0 -190.5 74.5t-71.5 195.5zM139 295h336q0 215 -153 215q-70 0 -125 -52.5t-58 -162.5zM193 627l69 92 q19 24 30.5 32.5t29.5 8.5t29 -8.5t30 -32.5l68 -92l-23 -19l-104 84l-105 -84z" />
<glyph unicode="&#xeb;" d="M49 262q0 122 79.5 202.5t193.5 80.5q113 0 179 -72t66 -205l-88 -6h-340q6 -100 64.5 -159.5t146.5 -59.5q80 0 160 39l14 -29q-68 -35 -110.5 -48t-102.5 -13q-119 0 -190.5 74.5t-71.5 195.5zM139 295h336q0 215 -153 215q-70 0 -125 -52.5t-58 -162.5zM162 684 q0 25 17 42t42 17t42.5 -17t17.5 -42t-17.5 -42t-42.5 -17t-42 17t-17 42zM367 684q0 25 17 42t42 17t42 -17t17 -42t-17 -42t-42 -17t-42 17t-17 42z" />
<glyph unicode="&#xec;" horiz-adv-x="327" d="M39 496v32h174l2 -32v-465h88v-31h-233v31h55v465h-86zM57 729l21 23q12 8 26 8q17 0 28 -8t30 -33l69 -92l-22 -19z" />
<glyph unicode="&#xed;" horiz-adv-x="327" d="M39 496v32h174l2 -32v-465h88v-31h-233v31h55v465h-86zM109 627l69 92q19 24 30.5 32.5t29.5 8.5q6 0 12.5 -2t9.5 -4l4 -2l19 -23l-152 -121z" />
<glyph unicode="&#xee;" horiz-adv-x="327" d="M39 496v32h174l2 -32v-465h88v-31h-233v31h55v465h-86zM43 627l68 92q19 24 30 32.5t29 8.5t29 -8.5t30 -32.5l70 -92l-25 -19l-104 84l-104 -84z" />
<glyph unicode="&#xef;" horiz-adv-x="327" d="M8 684q0 25 17.5 42t42.5 17t42 -17t17 -42t-17 -42t-42 -17t-42.5 17t-17.5 42zM39 496v32h174l2 -32v-465h88v-31h-233v31h55v465h-86zM213 684q0 25 17 42t42 17t42.5 -17t17.5 -42t-17.5 -42t-42.5 -17t-42 17t-17 42z" />
<glyph unicode="&#xf0;" horiz-adv-x="647" d="M57 262q0 122 65.5 204.5t186.5 82.5q61 0 131 -25l-55 148h-205v30h195l-53 144h-82v33h178v-33l51 -144h100v-30h-88l78 -223q33 -90 33 -175q0 -119 -75 -200.5t-193 -81.5q-115 0 -191 80.5t-76 189.5zM147 258q0 -55 18.5 -106.5t60.5 -89t98 -37.5q85 0 130.5 73.5 t45.5 173.5q0 85 -45 213q-43 17 -97 17q-95 0 -153 -60t-58 -184z" />
<glyph unicode="&#xf1;" horiz-adv-x="704" d="M39 496v32h174l2 -32v-9q112 62 176 62q99 0 150 -55t51 -162v-301h88v-31h-234v31h56v295q0 168 -150 168q-55 0 -137 -45v-418h88v-31h-233v31h55v465h-86zM180 627q51 69 75.5 89.5t45.5 20.5q14 0 66.5 -20.5t66.5 -20.5q18 0 34.5 14.5t43.5 49.5l23 -19 q-52 -70 -75 -90t-44 -20q-14 0 -67 20.5t-66 20.5q-18 0 -34.5 -14.5t-43.5 -49.5z" />
<glyph unicode="&#xf2;" horiz-adv-x="630" d="M49 274q0 118 73.5 194.5t192.5 76.5q121 0 195 -76t74 -195t-75.5 -200.5t-193.5 -81.5q-116 0 -191 82t-75 200zM141 274q0 -63 18 -118t58.5 -93t97.5 -38q85 0 131 73.5t46 173.5q0 104 -45 171t-132 67q-85 0 -129.5 -67t-44.5 -169zM207 729l20 23q13 8 27 8 q12 0 21.5 -5t15.5 -11.5t20 -24.5l70 -92l-23 -19z" />
<glyph unicode="&#xf3;" horiz-adv-x="630" d="M49 274q0 118 73.5 194.5t192.5 76.5q121 0 195 -76t74 -195t-75.5 -200.5t-193.5 -81.5q-116 0 -191 82t-75 200zM141 274q0 -63 18 -118t58.5 -93t97.5 -38q85 0 131 73.5t46 173.5q0 104 -45 171t-132 67q-85 0 -129.5 -67t-44.5 -169zM258 627l70 92q19 24 30 32.5 t29 8.5q6 0 13 -2t10 -4l4 -2l18 -23l-149 -121z" />
<glyph unicode="&#xf4;" horiz-adv-x="630" d="M49 274q0 118 73.5 194.5t192.5 76.5q121 0 195 -76t74 -195t-75.5 -200.5t-193.5 -81.5q-116 0 -191 82t-75 200zM141 274q0 -63 18 -118t58.5 -93t97.5 -38q85 0 131 73.5t46 173.5q0 104 -45 171t-132 67q-85 0 -129.5 -67t-44.5 -169zM188 625l70 94q18 23 29.5 31 t29.5 8t30 -8t30 -31l69 -94l-24 -19l-105 84l-104 -84z" />
<glyph unicode="&#xf5;" horiz-adv-x="630" d="M49 274q0 118 73.5 194.5t192.5 76.5q121 0 195 -76t74 -195t-75.5 -200.5t-193.5 -81.5q-116 0 -191 82t-75 200zM141 274q0 -63 18 -118t58.5 -93t97.5 -38q85 0 131 73.5t46 173.5q0 104 -45 171t-132 67q-85 0 -129.5 -67t-44.5 -169zM141 627q51 69 75.5 89.5 t45.5 20.5q14 0 66.5 -20.5t66.5 -20.5q18 0 34.5 14.5t43.5 49.5l23 -19q-52 -70 -75 -90t-44 -20q-13 0 -66 20.5t-67 20.5q-18 0 -34.5 -14.5t-43.5 -49.5z" />
<glyph unicode="&#xf6;" horiz-adv-x="630" d="M49 274q0 118 73.5 194.5t192.5 76.5q121 0 195 -76t74 -195t-75.5 -200.5t-193.5 -81.5q-116 0 -191 82t-75 200zM141 274q0 -63 18 -118t58.5 -93t97.5 -38q85 0 131 73.5t46 173.5q0 104 -45 171t-132 67q-85 0 -129.5 -67t-44.5 -169zM156 684q0 25 17 42t42 17 t42 -17t17 -42t-17 -42t-42 -17t-42 17t-17 42zM360 684q0 25 17.5 42t42.5 17t42 -17t17 -42t-17 -42t-42 -17t-42.5 17t-17.5 42z" />
<glyph unicode="&#xf7;" horiz-adv-x="692" d="M115 252v53h465v-53h-465zM289 109q0 25 17 42t42 17t42.5 -17t17.5 -42t-17.5 -42.5t-42.5 -17.5t-42 17.5t-17 42.5zM289 453q0 25 17 42t42 17t42.5 -17t17.5 -42t-17.5 -42.5t-42.5 -17.5t-42 17.5t-17 42.5z" />
<glyph unicode="&#xf8;" horiz-adv-x="630" d="M49 274q0 118 73.5 194.5t192.5 76.5q121 0 195 -76t74 -195t-75.5 -200.5t-193.5 -81.5q-116 0 -191 82t-75 200zM141 274q0 -64 21 -122t59 -91l160 437q-27 12 -66 12q-85 0 -129.5 -67t-44.5 -169zM248 43q32 -18 67 -18q85 0 131 73.5t46 173.5q0 152 -80 209z" />
<glyph unicode="&#xf9;" horiz-adv-x="698" d="M39 496v32h174l2 -32v-314q0 -74 27.5 -105.5t89.5 -31.5q37 0 85.5 15.5t78.5 31.5v404h-86v32h174l2 -32v-465h88v-31h-174l-4 29v26q-115 -63 -217 -63q-82 0 -118 48t-36 116v340h-86zM246 729l18 23q13 8 27 8q18 0 29 -8.5t30 -32.5l70 -92l-23 -19z" />
<glyph unicode="&#xfa;" horiz-adv-x="698" d="M39 496v32h174l2 -32v-314q0 -74 27.5 -105.5t89.5 -31.5q37 0 85.5 15.5t78.5 31.5v404h-86v32h174l2 -32v-465h88v-31h-174l-4 29v26q-115 -63 -217 -63q-82 0 -118 48t-36 116v340h-86zM297 627l70 92q19 24 30 32.5t29 8.5q6 0 13 -2t11 -4l3 -2l18 -23l-152 -121z " />
<glyph unicode="&#xfb;" horiz-adv-x="698" d="M39 496v32h174l2 -32v-314q0 -74 27.5 -105.5t89.5 -31.5q37 0 85.5 15.5t78.5 31.5v404h-86v32h174l2 -32v-465h88v-31h-174l-4 29v26q-115 -63 -217 -63q-82 0 -118 48t-36 116v340h-86zM229 625l70 94q19 24 29 31.5t28 7.5t30 -8t30 -31l69 -94l-22 -19l-107 84 l-104 -84z" />
<glyph unicode="&#xfc;" horiz-adv-x="698" d="M39 496v32h174l2 -32v-314q0 -74 27.5 -105.5t89.5 -31.5q37 0 85.5 15.5t78.5 31.5v404h-86v32h174l2 -32v-465h88v-31h-174l-4 29v26q-115 -63 -217 -63q-82 0 -118 48t-36 116v340h-86zM195 684q0 25 17 42t42 17t42 -17t17 -42t-17 -42t-42 -17t-42 17t-17 42z M399 684q0 25 17.5 42t42.5 17t42 -17t17 -42t-17 -42t-42 -17t-42.5 17t-17.5 42z" />
<glyph unicode="&#xfd;" horiz-adv-x="673" d="M39 496v32h176v-32l158 -433l159 433h-81v32h172v-32h-56l-186 -502q-85 -225 -121.5 -292t-87.5 -67q-20 0 -55 9l-27 12l33 72q38 -9 70 -9q23 0 38 15t41.5 73.5t75.5 192.5l-39 -16l-188 512h-82zM283 627l69 92q19 24 30.5 32.5t29.5 8.5q6 0 12.5 -2t9.5 -4l4 -2 l19 -23l-152 -121z" />
<glyph unicode="&#xfe;" horiz-adv-x="661" d="M39 846v33h174l2 -33v-359q118 62 178 62q213 0 213 -270q0 -134 -82.5 -209.5t-224.5 -75.5q-35 0 -84 6v-322h88v-32h-176l-2 32v1168h-86zM215 33q55 -6 94 -6q84 0 145.5 61t61.5 182q0 224 -156 224q-57 0 -145 -45v-416z" />
<glyph unicode="&#xff;" horiz-adv-x="673" d="M39 496v32h176v-32l158 -433l159 433h-81v32h172v-32h-56l-186 -502q-85 -225 -121.5 -292t-87.5 -67q-20 0 -55 9l-27 12l33 72q38 -9 70 -9q23 0 38 15t41.5 73.5t75.5 192.5l-39 -16l-188 512h-82zM182 684q0 25 17.5 42t42.5 17t42 -17t17 -42t-17 -42t-42 -17 t-42.5 17t-17.5 42zM387 684q0 25 17 42t42 17t42.5 -17t17.5 -42t-17.5 -42t-42.5 -17t-42 17t-17 42z" />
<glyph unicode="&#x152;" horiz-adv-x="1439" d="M70 426q0 182 120 306t310 124q203 0 321 -141v131h492l2 6l33 -6l-35 -172l-31 6v135h-362v-362h266v-31h-266v-391h385l55 141l33 -6l-33 -166h-539v143q-56 -71 -138.5 -112t-182.5 -41q-191 0 -310.5 127t-119.5 309zM166 432q0 -106 37.5 -197.5t115.5 -151.5 t181 -60q77 0 139.5 35t101.5 93.5t59.5 131.5t20.5 151q0 103 -35 189t-109.5 142t-176.5 56q-104 0 -181.5 -55.5t-115 -142.5t-37.5 -191z" />
<glyph unicode="&#x153;" horiz-adv-x="1058" d="M49 274q0 118 73.5 194.5t192.5 76.5q74 0 134.5 -32.5t95.5 -86.5q37 56 95 87.5t126 31.5q113 0 179.5 -72.5t66.5 -204.5l-88 -6h-338q6 -100 64 -159.5t145 -59.5q79 0 159 39l15 -29q-68 -35 -110.5 -48t-102.5 -13q-150 0 -221 114q-34 -53 -92 -83.5t-128 -30.5 q-116 0 -191 82t-75 200zM141 274q0 -63 18 -118t58.5 -93t97.5 -38q85 0 131 73.5t46 173.5q0 104 -45 171t-132 67q-85 0 -129.5 -67t-44.5 -169zM584 295h338q0 215 -156 215q-70 0 -124.5 -52.5t-57.5 -162.5z" />
<glyph unicode="&#x178;" horiz-adv-x="823" d="M27 815v31h252v-31h-58l221 -332l220 332h-101v31h195v-31h-56l-239 -366v-418h98v-31h-252v31h58v395l-256 389h-82zM250 1004q0 25 17 42t42 17t42.5 -17t17.5 -42t-17.5 -42.5t-42.5 -17.5t-42 17.5t-17 42.5zM455 1004q0 25 17 42t42 17t42 -17t17 -42t-17 -42.5 t-42 -17.5t-42 17.5t-17 42.5z" />
<glyph unicode="&#x2c6;" horiz-adv-x="329" d="M39 627l67 92q19 24 30.5 32.5t29.5 8.5t29 -8.5t30 -32.5l70 -92l-25 -19l-104 84l-105 -84z" />
<glyph unicode="&#x2dc;" horiz-adv-x="428" d="M39 627q51 69 75.5 89.5t45.5 20.5q13 0 65.5 -20.5t65.5 -20.5q31 0 80 64l22 -19q-51 -69 -75.5 -89.5t-45.5 -20.5q-14 0 -66.5 20.5t-66.5 20.5q-18 0 -34.5 -14.5t-43.5 -49.5z" />
<glyph unicode="&#x2000;" horiz-adv-x="682" />
<glyph unicode="&#x2001;" horiz-adv-x="1365" />
<glyph unicode="&#x2002;" horiz-adv-x="682" />
<glyph unicode="&#x2003;" horiz-adv-x="1365" />
<glyph unicode="&#x2004;" horiz-adv-x="455" />
<glyph unicode="&#x2005;" horiz-adv-x="341" />
<glyph unicode="&#x2006;" horiz-adv-x="227" />
<glyph unicode="&#x2007;" horiz-adv-x="227" />
<glyph unicode="&#x2008;" horiz-adv-x="170" />
<glyph unicode="&#x2009;" horiz-adv-x="273" />
<glyph unicode="&#x200a;" horiz-adv-x="75" />
<glyph unicode="&#x2010;" horiz-adv-x="380" d="M57 262v33h271v-33h-271z" />
<glyph unicode="&#x2011;" horiz-adv-x="380" d="M57 262v33h271v-33h-271z" />
<glyph unicode="&#x2012;" horiz-adv-x="380" d="M57 262v33h271v-33h-271z" />
<glyph unicode="&#x2013;" horiz-adv-x="575" d="M57 262v33h463v-33h-463z" />
<glyph unicode="&#x2014;" horiz-adv-x="1175" d="M57 262v33h1063v-33h-1063z" />
<glyph unicode="&#x2018;" horiz-adv-x="260" d="M27 621q0 71 149 227l25 -21q-92 -99 -92 -163q0 -19 15.5 -30.5t29.5 -14.5t26 -3l27 -12l-35 -72q-15 0 -46 7t-65 29t-34 53z" />
<glyph unicode="&#x2019;" horiz-adv-x="260" d="M57 774l33 72q10 0 31.5 -4.5t49 -13.5t47.5 -27.5t20 -42.5q0 -69 -152 -228l-23 21q93 100 93 164q0 26 -25 36.5t-47 10.5z" />
<glyph unicode="&#x201a;" horiz-adv-x="317" d="M82 41l33 72q16 0 47 -7t65.5 -28.5t34.5 -52.5q0 -70 -151 -228l-23 21q92 99 92 164q0 26 -24.5 36.5t-46.5 10.5z" />
<glyph unicode="&#x201c;" horiz-adv-x="473" d="M27 621q0 71 149 227l25 -21q-92 -99 -92 -163q0 -19 15.5 -30.5t29.5 -14.5t26 -3l27 -12l-35 -72q-15 0 -46 7t-65 29t-34 53zM240 621q0 71 149 227l23 -21q-90 -97 -90 -163q0 -19 15 -30.5t28.5 -14.5t25.5 -3l27 -12l-33 -72q-15 0 -46 7t-65 29t-34 53z" />
<glyph unicode="&#x201d;" horiz-adv-x="473" d="M57 774l33 72q10 0 31.5 -4.5t49 -13.5t47.5 -27.5t20 -42.5q0 -69 -152 -228l-23 21q93 100 93 164q0 26 -25 36.5t-47 10.5zM270 774l33 72q10 0 31 -4.5t48 -13.5t47 -27.5t20 -42.5q0 -71 -150 -228l-23 21q91 98 91 164q0 26 -24 36.5t-46 10.5z" />
<glyph unicode="&#x201e;" horiz-adv-x="528" d="M82 41l33 72q16 0 47 -7t65.5 -28.5t34.5 -52.5q0 -70 -151 -228l-23 21q92 99 92 164q0 26 -24.5 36.5t-46.5 10.5zM295 41l33 72q15 0 46 -7t65 -28.5t34 -52.5q0 -39 -45 -103t-104 -125l-23 21q90 97 90 164q0 26 -23.5 36.5t-45.5 10.5z" />
<glyph unicode="&#x2022;" horiz-adv-x="452" d="M115 279q0 47 33.5 79.5t80.5 32.5q46 0 78.5 -33t32.5 -79t-32.5 -79.5t-78.5 -33.5q-47 0 -80.5 33t-33.5 80z" />
<glyph unicode="&#x2026;" horiz-adv-x="1460" d="M61 51q0 25 17.5 42.5t42.5 17.5t42 -17.5t17 -42.5t-17 -42t-42 -17t-42.5 17t-17.5 42zM672 51q0 25 17 42.5t42 17.5t42.5 -17.5t17.5 -42.5t-17.5 -42t-42.5 -17t-42 17t-17 42zM1282 51q0 25 17 42.5t42 17.5t42.5 -17.5t17.5 -42.5t-17.5 -42t-42.5 -17t-42 17 t-17 42z" />
<glyph unicode="&#x202f;" horiz-adv-x="273" />
<glyph unicode="&#x2039;" horiz-adv-x="434" d="M57 358l156 193l25 -19l-82 -147l94 -172l-60 -72l-24 19z" />
<glyph unicode="&#x203a;" horiz-adv-x="434" d="M186 477l60 74l24 -19l111 -200l-158 -191l-24 19l84 145z" />
<glyph unicode="&#x205f;" horiz-adv-x="341" />
<glyph unicode="&#x20ac;" horiz-adv-x="1071" d="M115 213v31h129q-31 85 -31 178h-98v31h98q9 179 131.5 292t329.5 113q87 0 203 -29l4 23l32 -6l-34 -172l-31 6v121q-84 22 -176 22q-164 0 -258.5 -103.5t-102.5 -266.5h439v-31h-439q0 -102 33 -178h363v-31h-349q46 -88 131 -137t205 -49q112 0 189 24l43 121l32 -6 l-20 -139q-150 -39 -274 -39q-151 0 -253.5 60t-154.5 165h-141z" />
<glyph unicode="&#x2122;" horiz-adv-x="919" d="M57 770l17 80l14 -4h262l2 4l17 -4l-19 -80l-18 4v57h-92v-342h43v-18h-123v18h24v342h-86l-24 -61zM412 827v19h114l115 -307l115 307h90v-17h-25v-344h43v-18h-121v18h23v322l-113 -303l9 -23l-52 -16l-133 354v-334h43v-18h-90v18h25v342h-43z" />
<glyph unicode="&#x25fc;" horiz-adv-x="532" d="M0 0v532h532v-532h-532z" />
</font>
</defs>
</svg>
